<?xml version="1.0" standalone="no"?>
<!DOCTYPE svg PUBLIC "-//W3C//DTD SVG 20010904//EN"
 "http://www.w3.org/TR/2001/REC-SVG-20010904/DTD/svg10.dtd">
<svg version="1.0" xmlns="http://www.w3.org/2000/svg"
 width="256.000000pt" height="256.000000pt" viewBox="0 0 256.000000 256.000000"
 preserveAspectRatio="xMidYMid meet">
<metadata>
Created by potrace 1.11, written by Peter Selinger 2001-2013
</metadata>
<g transform="translate(0.000000,256.000000) scale(0.100000,-0.100000)"
fill="#000000" stroke="none">
<path d="M1140 2554 c-208 -27 -407 -101 -580 -217 -96 -64 -273 -241 -337
-337 -95 -142 -163 -302 -199 -470 -26 -119 -26 -381 0 -500 54 -252 164 -456
344 -642 180 -186 402 -308 662 -364 119 -26 381 -26 500 0 260 56 482 178
662 364 180 186 290 390 344 642 26 119 26 381 0 500 -56 259 -167 463 -355
651 -185 185 -379 293 -631 350 -83 19 -331 33 -410 23z m18 -532 c10 -7 12
-136 10 -613 l-3 -604 -65 0 -65 0 -3 604 c-2 477 0 606 10 613 7 4 33 8 58 8
25 0 51 -4 58 -8z m390 -124 c2 -88 6 -129 15 -137 8 -6 77 -12 168 -13 l154
-3 0 -60 0 -60 -162 -3 c-161 -2 -163 -3 -169 -26 -3 -13 -4 -115 -2 -227 3
-184 6 -209 25 -251 46 -100 150 -174 261 -185 28 -3 52 -9 53 -12 5 -67 3
-104 -8 -112 -22 -19 -154 5 -227 41 -78 39 -174 135 -205 205 -34 76 -41 180
-41 574 0 287 3 380 12 389 8 8 34 12 68 10 l55 -3 3 -127z m-399 -1372 c26
-14 51 -53 51 -81 0 -24 -34 -74 -58 -84 -49 -23 -103 -5 -127 43 -18 34 -18
54 -1 85 26 47 84 63 135 37z"/>
</g>
</svg>
